<svg xmlns="http://www.w3.org/2000/svg" width="800" height="800" viewBox="0 0 800 800">
  <title>personal_logo_slant_roundedz</title>
  <path d="M171.485,591.0658l-43.511,7.6722V297.1933L163.3,290.9644l99.51,128.9187,99.51-164.0113,34.4641-6.0769V551.3395l-43.0786,7.5959V346.5627l-78.8339,131.072-24.5554,4.33L171.485,378.6931V591.0658Z" style="fill: #231f20"/>
  <path d="M448.4479,542.23V240.2528l33.5965-5.4916,146.9,186.47V208.8586l43.0816-7.5964V502.8068l-34.4641,6.0769L491.953,323.9094V534.5586Z" style="fill: #231f20"/>
  <path d="M39.3923,134.1157C17.7265,137.9359,0,159.0616,0,181.0616V760c0,22,17.7265,36.8743,39.3923,33.0541l721.2156-127.17C782.2737,662.0641,800,640.9385,800,618.9385V40c0-22-17.7265-36.8743-39.3923-33.0541Zm713.86,453.8052c0,22-17.7265,43.1257-39.3923,46.9459L86.1406,745.55c-21.6658,3.82-39.3923-11.0541-39.3923-33.0541V214.8108c0-22,17.7265-43.1257,39.3923-46.9459L713.86,57.181c21.6658-3.82,39.3923,11.0541,39.3923,33.0541V587.9208Z" style="fill: #231f20"/>
</svg>
