<svg id="d3675d4c-7837-42fc-95a1-660d53c383bf" data-name="Layer 1" xmlns="http://www.w3.org/2000/svg" viewBox="0 0 1000 1000"><title>keycap_logo</title><path d="M454.93,803.41L45.4723,567.0093c-25.7578-14.8712-22.5275-40.8473,7.215-58.0191l391.89-226.2579C474.32,265.56,519.3118,263.6954,545.07,278.5666L954.5277,514.9674c25.7578,14.8712,22.5275,40.8473-7.215,58.0191l-391.89,226.2579C525.68,816.4163,480.6882,818.2813,454.93,803.41Z" style="fill:#fff;stroke:#707070;stroke-miterlimit:10;stroke-width:16px"/><line x1="28.0831" y1="540.9884" x2="28.0831" y2="500.643" style="fill:none;stroke:#707070;stroke-miterlimit:10;stroke-width:16px"/><line x1="971.9169" y1="540.9884" x2="971.9169" y2="498.3377" style="fill:none;stroke:#707070;stroke-miterlimit:10;stroke-width:16px"/><path d="M454.93,763.0647L45.4723,526.664c-25.7578-14.8712-22.5275-40.8473,7.215-58.0191l391.89-226.2579C474.32,225.215,519.3118,223.35,545.07,238.2213L954.5277,474.6221c25.7578,14.8712,22.5275,40.8473-7.215,58.0191l-391.89,226.2579C525.68,776.071,480.6882,777.936,454.93,763.0647Z" style="fill:#fff;stroke:#707070;stroke-miterlimit:10;stroke-width:16px"/><path d="M370.85,528.4756l117.4048-67.7837-133.43,23.92-18.8505-10.8834,41.4273-77.0377L259.9971,464.4747,225.31,444.448,402.6674,342.0506,439.8707,363.53l-48.1341,88.74,154.21-27.4969,36.951,21.3337L405.5406,548.5042Z" style="fill:#707070"/><path d="M591.0852,524.388l-113.6576,65.62-34.6871-20.0266L620.098,467.5842l26.8967,15.5288L623.5941,604.016l116.1546-67.0619,34.6906,20.0286L597.3326,659.2354,569.1778,642.98Z" style="fill:#707070"/><line x1="257.0796" y1="560.3206" x2="396.6354" y2="640.8931" style="fill:none;stroke:#707070;stroke-linecap:round;stroke-miterlimit:10;stroke-width:14px"/></svg>